<svg width="36" height="36" viewBox="0 0 36 36" fill="none" xmlns="http://www.w3.org/2000/svg">
<path d="M27.7564 25.4115C25.7856 27.5621 23.2874 30.122 20.2602 33.0923C20.2601 33.0925 20.2599 33.0926 20.2598 33.0927L18 35.3009L15.7403 33.0928C12.714 30.121 10.2156 27.5608 8.24342 25.4113C6.27367 23.2644 4.71543 21.346 3.56321 19.6548C2.41076 17.9633 1.61959 16.4292 1.17418 15.0506C0.725752 13.6627 0.501177 12.2431 0.5 10.79C0.500043 7.82818 1.40679 5.38613 3.20342 3.42795C4.99779 1.47224 7.21868 0.5 9.9 0.5C11.3798 0.5 12.7871 0.84041 14.1278 1.52441C15.4696 2.20895 16.6285 3.17427 17.6057 4.42738L18 4.93294L18.3943 4.42738C19.3715 3.17427 20.5304 2.20895 21.8722 1.52441C23.2129 0.84041 24.6202 0.5 26.1 0.5C28.7813 0.5 31.0022 1.47224 32.7966 3.42795C34.5932 5.38617 35.5 7.8283 35.5 10.7902C35.5 12.2419 35.276 13.6614 34.8276 15.0508C34.3822 16.4305 33.5906 17.9644 32.437 19.6545C31.2834 21.3446 29.725 23.2632 27.7564 25.4115Z" fill="#FE0505" stroke="#FF0202"/>
</svg>
