<svg width="20" height="20" viewBox="0 0 20 20" fill="none" xmlns="http://www.w3.org/2000/svg">
<path d="M14.5191 13.2918C13.444 14.465 12.0728 15.8705 10.4008 17.5111C10.4003 17.5116 10.3999 17.512 10.3995 17.5124L10 17.9028L9.60099 17.5129C9.60051 17.5124 9.60003 17.5119 9.59954 17.5114C7.92799 15.8699 6.55648 14.4641 5.48027 13.2911C4.41101 12.1257 3.58629 11.1069 2.98963 10.2312C2.39227 9.35439 2.01638 8.60791 1.81535 7.98571C1.60526 7.33544 1.5006 6.67336 1.5 5.99395C1.50012 4.62174 1.91037 3.56984 2.68027 2.73071C3.44336 1.899 4.34938 1.5 5.5 1.5C6.1261 1.5 6.71787 1.64203 7.29333 1.93561C7.87204 2.23086 8.37871 2.64907 8.81717 3.21128L10 4.72797L11.1828 3.21128C11.6213 2.64907 12.128 2.23086 12.7067 1.93561C13.2821 1.64203 13.8739 1.5 14.5 1.5C15.6506 1.5 16.5566 1.899 17.3197 2.73071C18.0897 3.56996 18.5 4.62204 18.5 5.99455C18.5 6.67291 18.3957 7.33491 18.1855 7.98609C17.9846 8.60843 17.6087 9.35447 17.0111 10.2301C16.4133 11.106 15.588 12.1253 14.5191 13.2918Z" stroke="white" stroke-width="3"/>
</svg>
