<svg width="20" height="20" viewBox="0 0 20 20" fill="none" xmlns="http://www.w3.org/2000/svg">
<path d="M15.2564 13.9674C14.1651 15.1582 12.7802 16.5774 11.1002 18.2259C11.1001 18.226 11.0999 18.2261 11.0998 18.2262L10 19.3009L8.90033 18.2264C8.90019 18.2262 8.90005 18.2261 8.89991 18.2259C7.22047 16.5767 5.83551 15.1574 4.74342 13.9671C3.65367 12.7794 2.79543 11.7222 2.16321 10.7942C1.53076 9.86593 1.10279 9.03291 0.863784 8.29315C0.621752 7.54402 0.500644 6.77837 0.5 5.99434C0.500042 4.39857 0.986793 3.0973 1.94342 2.05465C2.89779 1.01447 4.07201 0.5 5.5 0.5C6.28648 0.5 7.03373 0.680555 7.74778 1.04484C8.4629 1.40968 9.08179 1.9245 9.60573 2.59631L10 3.10188L10.3943 2.59631C10.9182 1.9245 11.5371 1.40968 12.2522 1.04484C12.9663 0.680555 13.7135 0.5 14.5 0.5C15.928 0.5 17.1022 1.01447 18.0566 2.05465C19.0132 3.09734 19.5 4.39869 19.5 5.99455C19.5 6.77774 19.3792 7.54337 19.1372 8.29327C18.8982 9.03357 18.47 9.86645 17.837 10.7939C17.204 11.7214 16.3456 12.7788 15.2564 13.9674Z" fill="#FE0505" stroke="#FF0202"/>
</svg>
