<svg width="36" height="36" viewBox="0 0 36 36" fill="none" xmlns="http://www.w3.org/2000/svg">
<path d="M27.0191 24.7359C25.0645 26.8689 22.5799 29.4153 19.5606 32.3778C19.5602 32.3782 19.5598 32.3785 19.5595 32.3789L18 33.9028L16.441 32.3793C16.4405 32.3789 16.44 32.3784 16.4396 32.3779C13.4213 29.414 10.9365 26.8673 8.98027 24.7352C7.03101 22.6107 5.50629 20.7308 4.38963 19.0918C3.27227 17.4518 2.53318 16.0042 2.12575 14.7432C1.70926 13.4541 1.50114 12.1381 1.5 10.7896C1.50012 8.05133 2.33037 5.85866 3.94027 4.104C5.54336 2.35677 7.49604 1.5 9.9 1.5C11.2194 1.5 12.4712 1.80188 13.6733 2.41518C14.8787 3.03013 15.9254 3.89884 16.8172 5.04235L18 6.55903L19.1828 5.04235C20.0746 3.89884 21.1213 3.03013 22.3267 2.41518C23.5288 1.80188 24.7806 1.5 26.1 1.5C28.504 1.5 30.4566 2.35677 32.0597 4.104C33.6697 5.85879 34.5 8.05165 34.5 10.7902C34.5 12.137 34.2925 13.453 33.8759 14.7436C33.4686 16.0053 32.7293 17.4524 31.6111 19.0907C30.4927 20.7292 28.9675 22.6097 27.0191 24.7359Z" fill="black" stroke="white" stroke-width="3"/>
</svg>
